<svg id="Layer_1" data-name="Layer 1" xmlns="http://www.w3.org/2000/svg" viewBox="0 0 285.75 29"><defs><style>.cls-1{fill:#fff;}.cls-2{fill:#ff6060;}</style></defs><title>LOGO SEMESTAROTAN</title><path class="cls-1" d="M184,8.11v7.34a13.66,13.66,0,0,0-1.83-.14q-4.26,0-4.26,4.33v8.92h-8.29V8.48h7.89v2.17C179,9,181.16,8.11,184,8.11Z"/><path class="cls-1" d="M190.79,27.58a10.32,10.32,0,0,1-4.16-3.7,9.76,9.76,0,0,1-1.51-5.38,9.76,9.76,0,0,1,1.51-5.38,10.2,10.2,0,0,1,4.16-3.68,14.29,14.29,0,0,1,12,0A10.17,10.17,0,0,1,207,13.12a9.91,9.91,0,0,1,1.48,5.38A9.91,9.91,0,0,1,207,23.88a10.29,10.29,0,0,1-4.15,3.7,14.19,14.19,0,0,1-12,0Zm-.55-21.91a3.09,3.09,0,0,1-.93-2.33A3.18,3.18,0,0,1,190.24,1,3.54,3.54,0,0,1,195,1a3.18,3.18,0,0,1,.93,2.35A3.09,3.09,0,0,1,195,5.67a3.3,3.3,0,0,1-2.37.9A3.27,3.27,0,0,1,190.24,5.67Zm8.9,15.75a4.29,4.29,0,0,0,.92-2.92,4.22,4.22,0,0,0-.92-2.9,3.2,3.2,0,0,0-4.7,0,4.22,4.22,0,0,0-.91,2.9,4.29,4.29,0,0,0,.91,2.92,3.18,3.18,0,0,0,4.7,0Zm-.75-15.75a3.06,3.06,0,0,1-.94-2.33A3.15,3.15,0,0,1,198.39,1a3.53,3.53,0,0,1,4.73,0,3.15,3.15,0,0,1,.94,2.35,3.06,3.06,0,0,1-.94,2.33,3.56,3.56,0,0,1-4.73,0Z"/><path class="cls-1" d="M225.86,27.86a10.35,10.35,0,0,1-5.1,1.06,9.46,9.46,0,0,1-6.5-2c-1.52-1.36-2.27-3.4-2.27-6.11V15.64h-2.76V9.58H212V4h8.29V9.58h4.11v6.06h-4.11V20.7a2,2,0,0,0,.48,1.43,1.58,1.58,0,0,0,1.24.52,3.32,3.32,0,0,0,1.88-.55Z"/><path class="cls-1" d="M245,10.48q2.79,2.37,2.79,7.29V28.56h-7.7V25.91c-1,2-2.85,3-5.69,3a9.13,9.13,0,0,1-4.06-.82A5.81,5.81,0,0,1,227,22.68a5.12,5.12,0,0,1,2.27-4.51q2.28-1.55,6.9-1.54h3.34q-.41-2.35-3.78-2.35a9.52,9.52,0,0,0-2.75.42,7.65,7.65,0,0,0-2.38,1.16l-2.65-5.47a14.47,14.47,0,0,1,4.17-1.67,20.35,20.35,0,0,1,4.86-.61C240.46,8.11,243.16,8.9,245,10.48Zm-6.53,13a2.68,2.68,0,0,0,1-1.43V20.63h-2.06c-1.68,0-2.53.56-2.53,1.69a1.46,1.46,0,0,0,.53,1.15,2.14,2.14,0,0,0,1.45.46A2.71,2.71,0,0,0,238.48,23.45Z"/><path class="cls-1" d="M271.31,10.35c1.5,1.5,2.26,3.75,2.26,6.76V28.56h-8.3v-10q0-3.45-2.46-3.45a2.84,2.84,0,0,0-2.25,1,4.51,4.51,0,0,0-.87,3.06v9.44H251.4V8.48h7.89v2A7.64,7.64,0,0,1,262,8.7a9.29,9.29,0,0,1,3.33-.59A8.12,8.12,0,0,1,271.31,10.35Z"/><path class="cls-2" d="M277.44,27.58a4.56,4.56,0,0,1-1.38-3.43,4.45,4.45,0,0,1,1.38-3.39,5.24,5.24,0,0,1,6.93,0,4.45,4.45,0,0,1,1.38,3.39,4.56,4.56,0,0,1-1.38,3.43,5.15,5.15,0,0,1-6.93,0Z"/><path class="cls-1" d="M4,28.37a14.19,14.19,0,0,1-4-1.43l2.27-5.47a11.56,11.56,0,0,0,3.31,1.32,15.1,15.1,0,0,0,3.7.48,5.72,5.72,0,0,0,2-.24.77.77,0,0,0,.57-.71c0-.32-.24-.54-.71-.66a17.52,17.52,0,0,0-2.33-.37,32.5,32.5,0,0,1-4.19-.75,6.54,6.54,0,0,1-3-1.78A5.15,5.15,0,0,1,.29,15a5.58,5.58,0,0,1,1.18-3.49A7.87,7.87,0,0,1,5,9a15.35,15.35,0,0,1,5.6-.92A23.58,23.58,0,0,1,15,8.54a13.42,13.42,0,0,1,3.72,1.23l-2.27,5.46a11.84,11.84,0,0,0-5.8-1.46c-1.81,0-2.72.31-2.72,1,0,.32.25.55.74.68a17.58,17.58,0,0,0,2.31.38,28,28,0,0,1,4.16.78,6.58,6.58,0,0,1,3,1.79,5.15,5.15,0,0,1,1.31,3.78,5.48,5.48,0,0,1-1.18,3.42A8,8,0,0,1,14.79,28a15.72,15.72,0,0,1-5.69.91A23.21,23.21,0,0,1,4,28.37Z"/><path class="cls-1" d="M43.23,20.45H29.28a3.45,3.45,0,0,0,1.47,1.74,5,5,0,0,0,2.57.6,6.49,6.49,0,0,0,2.22-.33,8,8,0,0,0,2-1.13l4.33,4.36q-2.94,3.24-8.78,3.23a14.3,14.3,0,0,1-6.38-1.34,10.07,10.07,0,0,1-4.26-3.72,9.87,9.87,0,0,1-1.5-5.36,9.91,9.91,0,0,1,1.48-5.38,10.17,10.17,0,0,1,4.08-3.68,12.46,12.46,0,0,1,5.81-1.33,12.59,12.59,0,0,1,5.56,1.22,9.44,9.44,0,0,1,4,3.56,10.25,10.25,0,0,1,1.49,5.61C43.34,18.62,43.3,19.27,43.23,20.45Zm-13-6a3.34,3.34,0,0,0-1.1,2H35.6a3.38,3.38,0,0,0-1.1-2,3.19,3.19,0,0,0-2.13-.71A3.24,3.24,0,0,0,30.24,14.46Z"/><path class="cls-1" d="M78.33,10.35q2.19,2.25,2.19,6.76V28.56h-8.3v-10c0-2.3-.74-3.45-2.24-3.45a2.31,2.31,0,0,0-1.89.88,4.47,4.47,0,0,0-.71,2.79v9.8h-8.3v-10c0-2.3-.74-3.45-2.23-3.45A2.29,2.29,0,0,0,55,16a4.4,4.4,0,0,0-.72,2.79v9.8H46V8.48h7.89v1.87a7.69,7.69,0,0,1,5.68-2.24,8.56,8.56,0,0,1,3.64.76,6.39,6.39,0,0,1,2.64,2.29A8.23,8.23,0,0,1,68.74,8.9a9.07,9.07,0,0,1,3.78-.79A7.74,7.74,0,0,1,78.33,10.35Z"/><path class="cls-1" d="M105.73,20.45h-14a3.45,3.45,0,0,0,1.47,1.74,5,5,0,0,0,2.57.6A6.49,6.49,0,0,0,98,22.46a8,8,0,0,0,2-1.13l4.33,4.36q-2.92,3.24-8.77,3.23a14.3,14.3,0,0,1-6.38-1.34,10.07,10.07,0,0,1-4.26-3.72,9.87,9.87,0,0,1-1.5-5.36,9.91,9.91,0,0,1,1.48-5.38A10.17,10.17,0,0,1,89,9.44a12.46,12.46,0,0,1,5.81-1.33,12.59,12.59,0,0,1,5.56,1.22,9.44,9.44,0,0,1,4,3.56,10.25,10.25,0,0,1,1.49,5.61C105.84,18.62,105.8,19.27,105.73,20.45ZM88.21,5.67a3.06,3.06,0,0,1-.94-2.33A3.15,3.15,0,0,1,88.21,1a3.53,3.53,0,0,1,4.73,0,3.19,3.19,0,0,1,.94,2.35,3.1,3.1,0,0,1-.94,2.33,3.56,3.56,0,0,1-4.73,0Zm4.53,8.79a3.29,3.29,0,0,0-1.1,2H98.1a3.39,3.39,0,0,0-1.11-2,3.14,3.14,0,0,0-2.12-.71A3.24,3.24,0,0,0,92.74,14.46Zm3.61-8.79a3.09,3.09,0,0,1-.93-2.33A3.18,3.18,0,0,1,96.35,1a3.54,3.54,0,0,1,4.74,0A3.18,3.18,0,0,1,102,3.34a3.09,3.09,0,0,1-.93,2.33,3.57,3.57,0,0,1-4.74,0Z"/><path class="cls-1" d="M111.23,28.37a14.11,14.11,0,0,1-4-1.43l2.27-5.47a11.5,11.5,0,0,0,3.3,1.32,15.24,15.24,0,0,0,3.71.48,5.72,5.72,0,0,0,2-.24.77.77,0,0,0,.57-.71q0-.48-.72-.66a17,17,0,0,0-2.33-.37,32.32,32.32,0,0,1-4.18-.75,6.62,6.62,0,0,1-3-1.78,5.15,5.15,0,0,1-1.3-3.78,5.63,5.63,0,0,1,1.17-3.49A7.91,7.91,0,0,1,112.17,9a15.31,15.31,0,0,1,5.6-.92,23.47,23.47,0,0,1,4.45.43A13.49,13.49,0,0,1,126,9.77l-2.28,5.46a11.8,11.8,0,0,0-5.79-1.46c-1.82,0-2.72.31-2.72,1,0,.32.24.55.73.68a17.5,17.5,0,0,0,2.32.38,28.52,28.52,0,0,1,4.16.78,6.63,6.63,0,0,1,3,1.79,5.15,5.15,0,0,1,1.3,3.78,5.53,5.53,0,0,1-1.17,3.42A8,8,0,0,1,122,28a15.75,15.75,0,0,1-5.69.91A23.36,23.36,0,0,1,111.23,28.37Z"/><path class="cls-1" d="M144,27.86a10.35,10.35,0,0,1-5.1,1.06,9.46,9.46,0,0,1-6.5-2c-1.52-1.36-2.27-3.4-2.27-6.11V15.64h-2.76V9.58h2.76V4h8.29V9.58h4.11v6.06h-4.11V20.7a2,2,0,0,0,.48,1.43,1.59,1.59,0,0,0,1.25.52A3.32,3.32,0,0,0,142,22.1Z"/><path class="cls-1" d="M163.12,10.48q2.79,2.37,2.79,7.29V28.56h-7.7V25.91c-1,2-2.85,3-5.69,3a9.13,9.13,0,0,1-4.06-.82,5.81,5.81,0,0,1-3.39-5.42,5.12,5.12,0,0,1,2.27-4.51q2.28-1.55,6.9-1.54h3.34q-.41-2.35-3.78-2.35a9.52,9.52,0,0,0-2.75.42,7.65,7.65,0,0,0-2.38,1.16L146,10.39a14.47,14.47,0,0,1,4.17-1.67,20.35,20.35,0,0,1,4.86-.61C158.57,8.11,161.27,8.9,163.12,10.48Zm-6.53,13a2.68,2.68,0,0,0,1-1.43V20.63h-2.05c-1.69,0-2.54.56-2.54,1.69a1.46,1.46,0,0,0,.53,1.15,2.14,2.14,0,0,0,1.45.46A2.71,2.71,0,0,0,156.59,23.45Z"/></svg>